<svg width="1593" height="369" viewBox="0 0 1593 369" fill="none" xmlns="http://www.w3.org/2000/svg">
<path d="M44.5 70.5326L56 0.0325639H137L126 70.5326H44.5ZM0.500001 363.533L39.5 118.033H115L76 363.533H0.500001Z" fill="#E7A650"/>
<path d="M160.289 363.533V11.0326H210.789V226.033H211.789L317.789 119.533H380.289L263.289 237.033L389.289 363.533H326.289L211.789 252.033H210.789V363.533H160.289ZM505.102 368.033C446.102 368.033 416.602 335.199 416.602 269.533V119.533H467.102V270.033C467.102 289.699 471.102 304.199 479.102 313.533C487.102 322.866 499.768 327.533 517.102 327.533C536.102 327.533 551.435 321.199 563.102 308.533C575.102 295.866 581.102 278.866 581.102 257.533V119.533H631.602V363.533H582.602V324.533C574.602 338.866 563.935 349.699 550.602 357.033C537.268 364.366 522.102 368.033 505.102 368.033ZM788.27 368.033C768.27 368.033 749.603 365.533 732.27 360.533C714.936 355.199 700.436 347.866 688.77 338.533L703.27 304.533C715.603 313.199 729.103 319.866 743.77 324.533C758.77 329.199 773.77 331.533 788.77 331.533C806.436 331.533 819.77 328.366 828.77 322.033C837.77 315.699 842.27 307.199 842.27 296.533C842.27 287.866 839.27 281.199 833.27 276.533C827.27 271.533 818.27 267.699 806.27 265.033L758.77 255.533C716.77 246.866 695.77 225.199 695.77 190.533C695.77 167.533 704.936 149.199 723.27 135.533C741.603 121.866 765.603 115.033 795.27 115.033C812.27 115.033 828.436 117.533 843.77 122.533C859.436 127.533 872.436 135.033 882.77 145.033L868.27 179.033C858.27 170.366 846.77 163.699 833.77 159.033C820.77 154.366 807.936 152.033 795.27 152.033C777.936 152.033 764.77 155.366 755.77 162.033C746.77 168.366 742.27 177.033 742.27 188.033C742.27 204.699 753.27 215.366 775.27 220.033L822.77 229.533C844.436 233.866 860.77 241.199 871.77 251.533C883.103 261.866 888.77 275.866 888.77 293.533C888.77 316.866 879.603 335.199 861.27 348.533C842.936 361.533 818.603 368.033 788.27 368.033ZM1031.96 368.033C972.957 368.033 943.457 335.199 943.457 269.533V119.533H993.957V270.033C993.957 289.699 997.957 304.199 1005.96 313.533C1013.96 322.866 1026.62 327.533 1043.96 327.533C1062.96 327.533 1078.29 321.199 1089.96 308.533C1101.96 295.866 1107.96 278.866 1107.96 257.533V119.533H1158.46V363.533H1109.46V324.533C1101.46 338.866 1090.79 349.699 1077.46 357.033C1064.12 364.366 1048.96 368.033 1031.96 368.033ZM1230.63 363.533V119.533H1279.63V159.033C1286.96 145.033 1297.13 134.199 1310.13 126.533C1323.13 118.866 1338.29 115.033 1355.63 115.033C1392.96 115.033 1417.13 131.366 1428.13 164.033C1435.79 148.699 1446.79 136.699 1461.13 128.033C1475.46 119.366 1491.79 115.033 1510.13 115.033C1564.79 115.033 1592.13 147.699 1592.13 213.033V363.533H1541.63V215.533C1541.63 194.866 1537.96 179.699 1530.63 170.033C1523.63 160.366 1511.96 155.533 1495.63 155.533C1477.29 155.533 1462.79 162.033 1452.13 175.033C1441.46 187.699 1436.13 205.033 1436.13 227.033V363.533H1385.63V215.533C1385.63 194.866 1382.13 179.699 1375.13 170.033C1368.13 160.366 1356.46 155.533 1340.13 155.533C1321.79 155.533 1307.29 162.033 1296.63 175.033C1286.29 187.699 1281.13 205.033 1281.13 227.033V363.533H1230.63Z" fill="white"/>
</svg>
