<svg width="1077" height="189" viewBox="0 0 1077 189" fill="none" xmlns="http://www.w3.org/2000/svg">
<g clip-path="url(#clip0)">
<path d="M12.8193 40.6985H62.5882V5.5083H12.8193V40.6985ZM13.8247 189H61.5828V53.015H13.8247V189Z" fill="#E7A650"/>
<path d="M89.1777 189H136.936V157.078L149.252 142.75L176.65 189H229.184L180.672 107.56L227.927 53.015H173.885L136.936 98.5108V5.5083H89.1777V189ZM284.421 192.016C303.775 192.016 316.343 181.711 325.141 170.399V189H372.899V53.015H325.141V126.663C325.141 141.493 316.594 149.537 305.283 149.537C293.721 149.537 285.929 141.493 285.929 126.663V53.015H238.171V141.996C238.171 172.913 255.514 192.016 284.421 192.016ZM453.526 192.016C486.705 192.016 509.076 176.432 509.076 146.52V146.018C509.076 119.625 487.711 110.325 460.816 102.784C446.488 98.5108 438.696 95.9973 438.696 90.7187V90.216C438.696 86.4457 442.466 83.6807 449.756 83.6807C460.564 83.6807 475.897 88.4565 489.973 96.2486L506.311 66.0856C490.727 56.0313 470.116 50.2501 450.259 50.2501C418.839 50.2501 395.714 66.337 395.714 95.2432V95.7459C395.714 123.144 417.079 132.193 443.975 139.231C458.302 143.253 465.843 145.515 465.843 150.794V151.296C465.843 156.072 462.072 158.586 453.778 158.586C439.701 158.586 422.609 153.307 407.025 143.001L389.178 171.908C408.03 185.481 430.653 192.016 453.526 192.016ZM529.6 189H577.358V115.352C577.358 100.522 585.904 92.4783 597.466 92.4783C608.778 92.4783 616.57 100.522 616.57 115.352V189H664.328V100.019C664.328 69.1019 646.984 49.9987 618.078 49.9987C598.723 49.9987 586.155 60.3044 577.358 71.6155V5.5083H529.6V189ZM735.152 192.016C754.507 192.016 767.075 181.711 775.872 170.399V189H823.63V53.015H775.872V126.663C775.872 141.493 767.326 149.537 756.015 149.537C744.453 149.537 736.661 141.493 736.661 126.663V53.015H688.902V141.996C688.902 172.913 706.246 192.016 735.152 192.016ZM850.216 189H897.974V115.101C897.974 100.271 906.017 92.4783 917.329 92.4783C928.64 92.4783 935.929 100.271 935.929 115.101V189H983.687V115.101C983.687 100.271 991.982 92.4783 1003.29 92.4783C1014.6 92.4783 1021.89 100.271 1021.89 115.101V189H1069.65V99.7676C1069.65 68.0965 1052.06 49.9987 1023.15 49.9987C1003.29 49.9987 989.468 58.5449 977.655 72.1182C970.365 58.0422 956.54 49.9987 938.443 49.9987C919.339 49.9987 906.772 60.3044 897.974 71.6155V53.015H850.216V189Z" fill="white"/>
</g>
<defs>
<clipPath id="clip0">
<rect width="1077" height="189" fill="white"/>
</clipPath>
</defs>
</svg>
